<svg viewBox="0 0 20 20" fill="none" xmlns="http://www.w3.org/2000/svg" aria-hidden="true">
  <path
    d="M1.5 19.5h2.887c.199 0 .39-.079.53-.22a.75.75 0 0 0 .22-.53.75.75 0 0 0-.22-.53.75.75 0 0 0-.53-.22h-.973l2.059-1.4 4.616 2.665a.75.75 0 0 0 .375 0l4.6-2.656 1.854 1.291h-.687a.75.75 0 0 0-.53.22.75.75 0 0 0-.22.53c0 .199.079.39.22.53a.75.75 0 0 0 .53.22h2.894a.75.75 0 0 0 .53-.22.75.75 0 0 0 .22-.53v-2.887a.75.75 0 0 0-.22-.53.75.75 0 0 0-.53-.22.75.75 0 0 0-.53.22.75.75 0 0 0-.22.53v1.324l-2.114-1.472a.75.75 0 0 0 .045-.146V8.9a.75.75 0 0 0-.375-.649L10.97 5.31V3.06l.764.764a.75.75 0 0 0 1.06-1.06L10.24.22a.75.75 0 0 0-1.06 0L7.136 2.264a.75.75 0 0 0 1.06 1.06l.764-.764v2.261l-5.074 2.93a.75.75 0 0 0-.375.649v6.3c.008.042.019.083.033.124l-2.045 1.388v-1.12a.75.75 0 0 0-.75-.75.75.75 0 0 0-.53.22.75.75 0 0 0-.22.53v2.89a.75.75 0 0 0 .75.75ZM10.97 7.313l3.964 2.288v5l-3.964-2.76v-4.528Zm-.692 5.872 3.564 2.481-3.615 2.087-3.611-2.085 3.662-2.483ZM5.513 9.601l3.949-2.28v4.6l-3.949 2.678v-4.998Z"
    fill="currentColor"
  />
</svg>
